<?xml version="1.0" encoding="utf-8" standalone="no"?>
<!DOCTYPE svg PUBLIC "-//W3C//DTD SVG 1.1//EN"
  "http://www.w3.org/Graphics/SVG/1.1/DTD/svg11.dtd">
<!-- Created with matplotlib (https://matplotlib.org/) -->
<svg height="463.242758pt" version="1.1" viewBox="0 0 630.63325 463.242758" width="630.63325pt" xmlns="http://www.w3.org/2000/svg" xmlns:xlink="http://www.w3.org/1999/xlink">
 <metadata>
  <rdf:RDF xmlns:cc="http://creativecommons.org/ns#" xmlns:dc="http://purl.org/dc/elements/1.1/" xmlns:rdf="http://www.w3.org/1999/02/22-rdf-syntax-ns#">
   <cc:Work>
    <dc:type rdf:resource="http://purl.org/dc/dcmitype/StillImage"/>
    <dc:date>2021-01-02T11:33:46.465405</dc:date>
    <dc:format>image/svg+xml</dc:format>
    <dc:creator>
     <cc:Agent>
      <dc:title>Matplotlib v3.3.0, https://matplotlib.org/</dc:title>
     </cc:Agent>
    </dc:creator>
   </cc:Work>
  </rdf:RDF>
 </metadata>
 <defs>
  <style type="text/css">*{stroke-linecap:butt;stroke-linejoin:round;}</style>
 </defs>
 <g id="figure_1">
  <g id="patch_1">
   <path d="M 0 463.242758 
L 630.63325 463.242758 
L 630.63325 0 
L 0 0 
z
" style="fill:#ffffff;"/>
  </g>
  <g id="axes_1">
   <g id="patch_2">
    <path d="M 40.88125 405.8136 
L 623.43325 405.8136 
L 623.43325 7.2 
L 40.88125 7.2 
z
" style="fill:#ffffff;"/>
   </g>
   <g id="matplotlib.axis_1">
    <g id="xtick_1">
     <g id="line2d_1">
      <defs>
       <path d="M 0 0 
L 0 3.5 
" id="m962430a933" style="stroke:#000000;stroke-width:0.8;"/>
      </defs>
      <g>
       <use style="stroke:#000000;stroke-width:0.8;" x="67.360886" xlink:href="#m962430a933" y="405.8136"/>
      </g>
     </g>
     <g id="text_1">
      <!-- 2000-01 -->
      <g transform="translate(30.136066 440.285446)rotate(-30)scale(0.1 -0.1)">
       <defs>
        <path d="M 19.1875 8.296875 
L 53.609375 8.296875 
L 53.609375 0 
L 7.328125 0 
L 7.328125 8.296875 
Q 12.9375 14.109375 22.625 23.890625 
Q 32.328125 33.6875 34.8125 36.53125 
Q 39.546875 41.84375 41.421875 45.53125 
Q 43.3125 49.21875 43.3125 52.78125 
Q 43.3125 58.59375 39.234375 62.25 
Q 35.15625 65.921875 28.609375 65.921875 
Q 23.96875 65.921875 18.8125 64.3125 
Q 13.671875 62.703125 7.8125 59.421875 
L 7.8125 69.390625 
Q 13.765625 71.78125 18.9375 73 
Q 24.125 74.21875 28.421875 74.21875 
Q 39.75 74.21875 46.484375 68.546875 
Q 53.21875 62.890625 53.21875 53.421875 
Q 53.21875 48.921875 51.53125 44.890625 
Q 49.859375 40.875 45.40625 35.40625 
Q 44.1875 33.984375 37.640625 27.21875 
Q 31.109375 20.453125 19.1875 8.296875 
z
" id="DejaVuSans-50"/>
        <path d="M 31.78125 66.40625 
Q 24.171875 66.40625 20.328125 58.90625 
Q 16.5 51.421875 16.5 36.375 
Q 16.5 21.390625 20.328125 13.890625 
Q 24.171875 6.390625 31.78125 6.390625 
Q 39.453125 6.390625 43.28125 13.890625 
Q 47.125 21.390625 47.125 36.375 
Q 47.125 51.421875 43.28125 58.90625 
Q 39.453125 66.40625 31.78125 66.40625 
z
M 31.78125 74.21875 
Q 44.046875 74.21875 50.515625 64.515625 
Q 56.984375 54.828125 56.984375 36.375 
Q 56.984375 17.96875 50.515625 8.265625 
Q 44.046875 -1.421875 31.78125 -1.421875 
Q 19.53125 -1.421875 13.0625 8.265625 
Q 6.59375 17.96875 6.59375 36.375 
Q 6.59375 54.828125 13.0625 64.515625 
Q 19.53125 74.21875 31.78125 74.21875 
z
" id="DejaVuSans-48"/>
        <path d="M 4.890625 31.390625 
L 31.203125 31.390625 
L 31.203125 23.390625 
L 4.890625 23.390625 
z
" id="DejaVuSans-45"/>
        <path d="M 12.40625 8.296875 
L 28.515625 8.296875 
L 28.515625 63.921875 
L 10.984375 60.40625 
L 10.984375 69.390625 
L 28.421875 72.90625 
L 38.28125 72.90625 
L 38.28125 8.296875 
L 54.390625 8.296875 
L 54.390625 0 
L 12.40625 0 
z
" id="DejaVuSans-49"/>
       </defs>
       <use xlink:href="#DejaVuSans-50"/>
       <use x="63.623047" xlink:href="#DejaVuSans-48"/>
       <use x="127.246094" xlink:href="#DejaVuSans-48"/>
       <use x="190.869141" xlink:href="#DejaVuSans-48"/>
       <use x="254.492188" xlink:href="#DejaVuSans-45"/>
       <use x="290.576172" xlink:href="#DejaVuSans-48"/>
       <use x="354.199219" xlink:href="#DejaVuSans-49"/>
      </g>
     </g>
    </g>
    <g id="xtick_2">
     <g id="line2d_2">
      <g>
       <use style="stroke:#000000;stroke-width:0.8;" x="154.238709" xlink:href="#m962430a933" y="405.8136"/>
      </g>
     </g>
     <g id="text_2">
      <!-- 2000-03 -->
      <g transform="translate(117.013888 440.285446)rotate(-30)scale(0.1 -0.1)">
       <defs>
        <path d="M 40.578125 39.3125 
Q 47.65625 37.796875 51.625 33 
Q 55.609375 28.21875 55.609375 21.1875 
Q 55.609375 10.40625 48.1875 4.484375 
Q 40.765625 -1.421875 27.09375 -1.421875 
Q 22.515625 -1.421875 17.65625 -0.515625 
Q 12.796875 0.390625 7.625 2.203125 
L 7.625 11.71875 
Q 11.71875 9.328125 16.59375 8.109375 
Q 21.484375 6.890625 26.8125 6.890625 
Q 36.078125 6.890625 40.9375 10.546875 
Q 45.796875 14.203125 45.796875 21.1875 
Q 45.796875 27.640625 41.28125 31.265625 
Q 36.765625 34.90625 28.71875 34.90625 
L 20.21875 34.90625 
L 20.21875 43.015625 
L 29.109375 43.015625 
Q 36.375 43.015625 40.234375 45.921875 
Q 44.09375 48.828125 44.09375 54.296875 
Q 44.09375 59.90625 40.109375 62.90625 
Q 36.140625 65.921875 28.71875 65.921875 
Q 24.65625 65.921875 20.015625 65.03125 
Q 15.375 64.15625 9.8125 62.3125 
L 9.8125 71.09375 
Q 15.4375 72.65625 20.34375 73.4375 
Q 25.25 74.21875 29.59375 74.21875 
Q 40.828125 74.21875 47.359375 69.109375 
Q 53.90625 64.015625 53.90625 55.328125 
Q 53.90625 49.265625 50.4375 45.09375 
Q 46.96875 40.921875 40.578125 39.3125 
z
" id="DejaVuSans-51"/>
       </defs>
       <use xlink:href="#DejaVuSans-50"/>
       <use x="63.623047" xlink:href="#DejaVuSans-48"/>
       <use x="127.246094" xlink:href="#DejaVuSans-48"/>
       <use x="190.869141" xlink:href="#DejaVuSans-48"/>
       <use x="254.492188" xlink:href="#DejaVuSans-45"/>
       <use x="290.576172" xlink:href="#DejaVuSans-48"/>
       <use x="354.199219" xlink:href="#DejaVuSans-51"/>
      </g>
     </g>
    </g>
    <g id="xtick_3">
     <g id="line2d_3">
      <g>
       <use style="stroke:#000000;stroke-width:0.8;" x="242.564495" xlink:href="#m962430a933" y="405.8136"/>
      </g>
     </g>
     <g id="text_3">
      <!-- 2000-05 -->
      <g transform="translate(205.339675 440.285446)rotate(-30)scale(0.1 -0.1)">
       <defs>
        <path d="M 10.796875 72.90625 
L 49.515625 72.90625 
L 49.515625 64.59375 
L 19.828125 64.59375 
L 19.828125 46.734375 
Q 21.96875 47.46875 24.109375 47.828125 
Q 26.265625 48.1875 28.421875 48.1875 
Q 40.625 48.1875 47.75 41.5 
Q 54.890625 34.8125 54.890625 23.390625 
Q 54.890625 11.625 47.5625 5.09375 
Q 40.234375 -1.421875 26.90625 -1.421875 
Q 22.3125 -1.421875 17.546875 -0.640625 
Q 12.796875 0.140625 7.71875 1.703125 
L 7.71875 11.625 
Q 12.109375 9.234375 16.796875 8.0625 
Q 21.484375 6.890625 26.703125 6.890625 
Q 35.15625 6.890625 40.078125 11.328125 
Q 45.015625 15.765625 45.015625 23.390625 
Q 45.015625 31 40.078125 35.4375 
Q 35.15625 39.890625 26.703125 39.890625 
Q 22.75 39.890625 18.8125 39.015625 
Q 14.890625 38.140625 10.796875 36.28125 
z
" id="DejaVuSans-53"/>
       </defs>
       <use xlink:href="#DejaVuSans-50"/>
       <use x="63.623047" xlink:href="#DejaVuSans-48"/>
       <use x="127.246094" xlink:href="#DejaVuSans-48"/>
       <use x="190.869141" xlink:href="#DejaVuSans-48"/>
       <use x="254.492188" xlink:href="#DejaVuSans-45"/>
       <use x="290.576172" xlink:href="#DejaVuSans-48"/>
       <use x="354.199219" xlink:href="#DejaVuSans-53"/>
      </g>
     </g>
    </g>
    <g id="xtick_4">
     <g id="line2d_4">
      <g>
       <use style="stroke:#000000;stroke-width:0.8;" x="330.890282" xlink:href="#m962430a933" y="405.8136"/>
      </g>
     </g>
     <g id="text_4">
      <!-- 2000-07 -->
      <g transform="translate(293.665461 440.285446)rotate(-30)scale(0.1 -0.1)">
       <defs>
        <path d="M 8.203125 72.90625 
L 55.078125 72.90625 
L 55.078125 68.703125 
L 28.609375 0 
L 18.3125 0 
L 43.21875 64.59375 
L 8.203125 64.59375 
z
" id="DejaVuSans-55"/>
       </defs>
       <use xlink:href="#DejaVuSans-50"/>
       <use x="63.623047" xlink:href="#DejaVuSans-48"/>
       <use x="127.246094" xlink:href="#DejaVuSans-48"/>
       <use x="190.869141" xlink:href="#DejaVuSans-48"/>
       <use x="254.492188" xlink:href="#DejaVuSans-45"/>
       <use x="290.576172" xlink:href="#DejaVuSans-48"/>
       <use x="354.199219" xlink:href="#DejaVuSans-55"/>
      </g>
     </g>
    </g>
    <g id="xtick_5">
     <g id="line2d_5">
      <g>
       <use style="stroke:#000000;stroke-width:0.8;" x="420.664032" xlink:href="#m962430a933" y="405.8136"/>
      </g>
     </g>
     <g id="text_5">
      <!-- 2000-09 -->
      <g transform="translate(383.439211 440.285446)rotate(-30)scale(0.1 -0.1)">
       <defs>
        <path d="M 10.984375 1.515625 
L 10.984375 10.5 
Q 14.703125 8.734375 18.5 7.8125 
Q 22.3125 6.890625 25.984375 6.890625 
Q 35.75 6.890625 40.890625 13.453125 
Q 46.046875 20.015625 46.78125 33.40625 
Q 43.953125 29.203125 39.59375 26.953125 
Q 35.25 24.703125 29.984375 24.703125 
Q 19.046875 24.703125 12.671875 31.3125 
Q 6.296875 37.9375 6.296875 49.421875 
Q 6.296875 60.640625 12.9375 67.421875 
Q 19.578125 74.21875 30.609375 74.21875 
Q 43.265625 74.21875 49.921875 64.515625 
Q 56.59375 54.828125 56.59375 36.375 
Q 56.59375 19.140625 48.40625 8.859375 
Q 40.234375 -1.421875 26.421875 -1.421875 
Q 22.703125 -1.421875 18.890625 -0.6875 
Q 15.09375 0.046875 10.984375 1.515625 
z
M 30.609375 32.421875 
Q 37.25 32.421875 41.125 36.953125 
Q 45.015625 41.5 45.015625 49.421875 
Q 45.015625 57.28125 41.125 61.84375 
Q 37.25 66.40625 30.609375 66.40625 
Q 23.96875 66.40625 20.09375 61.84375 
Q 16.21875 57.28125 16.21875 49.421875 
Q 16.21875 41.5 20.09375 36.953125 
Q 23.96875 32.421875 30.609375 32.421875 
z
" id="DejaVuSans-57"/>
       </defs>
       <use xlink:href="#DejaVuSans-50"/>
       <use x="63.623047" xlink:href="#DejaVuSans-48"/>
       <use x="127.246094" xlink:href="#DejaVuSans-48"/>
       <use x="190.869141" xlink:href="#DejaVuSans-48"/>
       <use x="254.492188" xlink:href="#DejaVuSans-45"/>
       <use x="290.576172" xlink:href="#DejaVuSans-48"/>
       <use x="354.199219" xlink:href="#DejaVuSans-57"/>
      </g>
     </g>
    </g>
    <g id="xtick_6">
     <g id="line2d_6">
      <g>
       <use style="stroke:#000000;stroke-width:0.8;" x="508.989818" xlink:href="#m962430a933" y="405.8136"/>
      </g>
     </g>
     <g id="text_6">
      <!-- 2000-11 -->
      <g transform="translate(471.764997 440.285446)rotate(-30)scale(0.1 -0.1)">
       <use xlink:href="#DejaVuSans-50"/>
       <use x="63.623047" xlink:href="#DejaVuSans-48"/>
       <use x="127.246094" xlink:href="#DejaVuSans-48"/>
       <use x="190.869141" xlink:href="#DejaVuSans-48"/>
       <use x="254.492188" xlink:href="#DejaVuSans-45"/>
       <use x="290.576172" xlink:href="#DejaVuSans-49"/>
       <use x="354.199219" xlink:href="#DejaVuSans-49"/>
      </g>
     </g>
    </g>
    <g id="xtick_7">
     <g id="line2d_7">
      <g>
       <use style="stroke:#000000;stroke-width:0.8;" x="597.315605" xlink:href="#m962430a933" y="405.8136"/>
      </g>
     </g>
     <g id="text_7">
      <!-- 2001-01 -->
      <g transform="translate(560.090784 440.285446)rotate(-30)scale(0.1 -0.1)">
       <use xlink:href="#DejaVuSans-50"/>
       <use x="63.623047" xlink:href="#DejaVuSans-48"/>
       <use x="127.246094" xlink:href="#DejaVuSans-48"/>
       <use x="190.869141" xlink:href="#DejaVuSans-49"/>
       <use x="254.492188" xlink:href="#DejaVuSans-45"/>
       <use x="290.576172" xlink:href="#DejaVuSans-48"/>
       <use x="354.199219" xlink:href="#DejaVuSans-49"/>
      </g>
     </g>
    </g>
    <g id="text_8">
     <!-- time_of_measurement -->
     <g transform="translate(276.161937 453.684946)scale(0.1 -0.1)">
      <defs>
       <path d="M 18.3125 70.21875 
L 18.3125 54.6875 
L 36.8125 54.6875 
L 36.8125 47.703125 
L 18.3125 47.703125 
L 18.3125 18.015625 
Q 18.3125 11.328125 20.140625 9.421875 
Q 21.96875 7.515625 27.59375 7.515625 
L 36.8125 7.515625 
L 36.8125 0 
L 27.59375 0 
Q 17.1875 0 13.234375 3.875 
Q 9.28125 7.765625 9.28125 18.015625 
L 9.28125 47.703125 
L 2.6875 47.703125 
L 2.6875 54.6875 
L 9.28125 54.6875 
L 9.28125 70.21875 
z
" id="DejaVuSans-116"/>
       <path d="M 9.421875 54.6875 
L 18.40625 54.6875 
L 18.40625 0 
L 9.421875 0 
z
M 9.421875 75.984375 
L 18.40625 75.984375 
L 18.40625 64.59375 
L 9.421875 64.59375 
z
" id="DejaVuSans-105"/>
       <path d="M 52 44.1875 
Q 55.375 50.25 60.0625 53.125 
Q 64.75 56 71.09375 56 
Q 79.640625 56 84.28125 50.015625 
Q 88.921875 44.046875 88.921875 33.015625 
L 88.921875 0 
L 79.890625 0 
L 79.890625 32.71875 
Q 79.890625 40.578125 77.09375 44.375 
Q 74.3125 48.1875 68.609375 48.1875 
Q 61.625 48.1875 57.5625 43.546875 
Q 53.515625 38.921875 53.515625 30.90625 
L 53.515625 0 
L 44.484375 0 
L 44.484375 32.71875 
Q 44.484375 40.625 41.703125 44.40625 
Q 38.921875 48.1875 33.109375 48.1875 
Q 26.21875 48.1875 22.15625 43.53125 
Q 18.109375 38.875 18.109375 30.90625 
L 18.109375 0 
L 9.078125 0 
L 9.078125 54.6875 
L 18.109375 54.6875 
L 18.109375 46.1875 
Q 21.1875 51.21875 25.484375 53.609375 
Q 29.78125 56 35.6875 56 
Q 41.65625 56 45.828125 52.96875 
Q 50 49.953125 52 44.1875 
z
" id="DejaVuSans-109"/>
       <path d="M 56.203125 29.59375 
L 56.203125 25.203125 
L 14.890625 25.203125 
Q 15.484375 15.921875 20.484375 11.0625 
Q 25.484375 6.203125 34.421875 6.203125 
Q 39.59375 6.203125 44.453125 7.46875 
Q 49.3125 8.734375 54.109375 11.28125 
L 54.109375 2.78125 
Q 49.265625 0.734375 44.1875 -0.34375 
Q 39.109375 -1.421875 33.890625 -1.421875 
Q 20.796875 -1.421875 13.15625 6.1875 
Q 5.515625 13.8125 5.515625 26.8125 
Q 5.515625 40.234375 12.765625 48.109375 
Q 20.015625 56 32.328125 56 
Q 43.359375 56 49.78125 48.890625 
Q 56.203125 41.796875 56.203125 29.59375 
z
M 47.21875 32.234375 
Q 47.125 39.59375 43.09375 43.984375 
Q 39.0625 48.390625 32.421875 48.390625 
Q 24.90625 48.390625 20.390625 44.140625 
Q 15.875 39.890625 15.1875 32.171875 
z
" id="DejaVuSans-101"/>
       <path d="M 50.984375 -16.609375 
L 50.984375 -23.578125 
L -0.984375 -23.578125 
L -0.984375 -16.609375 
z
" id="DejaVuSans-95"/>
       <path d="M 30.609375 48.390625 
Q 23.390625 48.390625 19.1875 42.75 
Q 14.984375 37.109375 14.984375 27.296875 
Q 14.984375 17.484375 19.15625 11.84375 
Q 23.34375 6.203125 30.609375 6.203125 
Q 37.796875 6.203125 41.984375 11.859375 
Q 46.1875 17.53125 46.1875 27.296875 
Q 46.1875 37.015625 41.984375 42.703125 
Q 37.796875 48.390625 30.609375 48.390625 
z
M 30.609375 56 
Q 42.328125 56 49.015625 48.375 
Q 55.71875 40.765625 55.71875 27.296875 
Q 55.71875 13.875 49.015625 6.21875 
Q 42.328125 -1.421875 30.609375 -1.421875 
Q 18.84375 -1.421875 12.171875 6.21875 
Q 5.515625 13.875 5.515625 27.296875 
Q 5.515625 40.765625 12.171875 48.375 
Q 18.84375 56 30.609375 56 
z
" id="DejaVuSans-111"/>
       <path d="M 37.109375 75.984375 
L 37.109375 68.5 
L 28.515625 68.5 
Q 23.6875 68.5 21.796875 66.546875 
Q 19.921875 64.59375 19.921875 59.515625 
L 19.921875 54.6875 
L 34.71875 54.6875 
L 34.71875 47.703125 
L 19.921875 47.703125 
L 19.921875 0 
L 10.890625 0 
L 10.890625 47.703125 
L 2.296875 47.703125 
L 2.296875 54.6875 
L 10.890625 54.6875 
L 10.890625 58.5 
Q 10.890625 67.625 15.140625 71.796875 
Q 19.390625 75.984375 28.609375 75.984375 
z
" id="DejaVuSans-102"/>
       <path d="M 34.28125 27.484375 
Q 23.390625 27.484375 19.1875 25 
Q 14.984375 22.515625 14.984375 16.5 
Q 14.984375 11.71875 18.140625 8.90625 
Q 21.296875 6.109375 26.703125 6.109375 
Q 34.1875 6.109375 38.703125 11.40625 
Q 43.21875 16.703125 43.21875 25.484375 
L 43.21875 27.484375 
z
M 52.203125 31.203125 
L 52.203125 0 
L 43.21875 0 
L 43.21875 8.296875 
Q 40.140625 3.328125 35.546875 0.953125 
Q 30.953125 -1.421875 24.3125 -1.421875 
Q 15.921875 -1.421875 10.953125 3.296875 
Q 6 8.015625 6 15.921875 
Q 6 25.140625 12.171875 29.828125 
Q 18.359375 34.515625 30.609375 34.515625 
L 43.21875 34.515625 
L 43.21875 35.40625 
Q 43.21875 41.609375 39.140625 45 
Q 35.0625 48.390625 27.6875 48.390625 
Q 23 48.390625 18.546875 47.265625 
Q 14.109375 46.140625 10.015625 43.890625 
L 10.015625 52.203125 
Q 14.9375 54.109375 19.578125 55.046875 
Q 24.21875 56 28.609375 56 
Q 40.484375 56 46.34375 49.84375 
Q 52.203125 43.703125 52.203125 31.203125 
z
" id="DejaVuSans-97"/>
       <path d="M 44.28125 53.078125 
L 44.28125 44.578125 
Q 40.484375 46.53125 36.375 47.5 
Q 32.28125 48.484375 27.875 48.484375 
Q 21.1875 48.484375 17.84375 46.4375 
Q 14.5 44.390625 14.5 40.28125 
Q 14.5 37.15625 16.890625 35.375 
Q 19.28125 33.59375 26.515625 31.984375 
L 29.59375 31.296875 
Q 39.15625 29.25 43.1875 25.515625 
Q 47.21875 21.78125 47.21875 15.09375 
Q 47.21875 7.46875 41.1875 3.015625 
Q 35.15625 -1.421875 24.609375 -1.421875 
Q 20.21875 -1.421875 15.453125 -0.5625 
Q 10.6875 0.296875 5.421875 2 
L 5.421875 11.28125 
Q 10.40625 8.6875 15.234375 7.390625 
Q 20.0625 6.109375 24.8125 6.109375 
Q 31.15625 6.109375 34.5625 8.28125 
Q 37.984375 10.453125 37.984375 14.40625 
Q 37.984375 18.0625 35.515625 20.015625 
Q 33.0625 21.96875 24.703125 23.78125 
L 21.578125 24.515625 
Q 13.234375 26.265625 9.515625 29.90625 
Q 5.8125 33.546875 5.8125 39.890625 
Q 5.8125 47.609375 11.28125 51.796875 
Q 16.75 56 26.8125 56 
Q 31.78125 56 36.171875 55.265625 
Q 40.578125 54.546875 44.28125 53.078125 
z
" id="DejaVuSans-115"/>
       <path d="M 8.5 21.578125 
L 8.5 54.6875 
L 17.484375 54.6875 
L 17.484375 21.921875 
Q 17.484375 14.15625 20.5 10.265625 
Q 23.53125 6.390625 29.59375 6.390625 
Q 36.859375 6.390625 41.078125 11.03125 
Q 45.3125 15.671875 45.3125 23.6875 
L 45.3125 54.6875 
L 54.296875 54.6875 
L 54.296875 0 
L 45.3125 0 
L 45.3125 8.40625 
Q 42.046875 3.421875 37.71875 1 
Q 33.40625 -1.421875 27.6875 -1.421875 
Q 18.265625 -1.421875 13.375 4.4375 
Q 8.5 10.296875 8.5 21.578125 
z
M 31.109375 56 
z
" id="DejaVuSans-117"/>
       <path d="M 41.109375 46.296875 
Q 39.59375 47.171875 37.8125 47.578125 
Q 36.03125 48 33.890625 48 
Q 26.265625 48 22.1875 43.046875 
Q 18.109375 38.09375 18.109375 28.8125 
L 18.109375 0 
L 9.078125 0 
L 9.078125 54.6875 
L 18.109375 54.6875 
L 18.109375 46.1875 
Q 20.953125 51.171875 25.484375 53.578125 
Q 30.03125 56 36.53125 56 
Q 37.453125 56 38.578125 55.875 
Q 39.703125 55.765625 41.0625 55.515625 
z
" id="DejaVuSans-114"/>
       <path d="M 54.890625 33.015625 
L 54.890625 0 
L 45.90625 0 
L 45.90625 32.71875 
Q 45.90625 40.484375 42.875 44.328125 
Q 39.84375 48.1875 33.796875 48.1875 
Q 26.515625 48.1875 22.3125 43.546875 
Q 18.109375 38.921875 18.109375 30.90625 
L 18.109375 0 
L 9.078125 0 
L 9.078125 54.6875 
L 18.109375 54.6875 
L 18.109375 46.1875 
Q 21.34375 51.125 25.703125 53.5625 
Q 30.078125 56 35.796875 56 
Q 45.21875 56 50.046875 50.171875 
Q 54.890625 44.34375 54.890625 33.015625 
z
" id="DejaVuSans-110"/>
      </defs>
      <use xlink:href="#DejaVuSans-116"/>
      <use x="39.208984" xlink:href="#DejaVuSans-105"/>
      <use x="66.992188" xlink:href="#DejaVuSans-109"/>
      <use x="164.404297" xlink:href="#DejaVuSans-101"/>
      <use x="225.927734" xlink:href="#DejaVuSans-95"/>
      <use x="275.927734" xlink:href="#DejaVuSans-111"/>
      <use x="337.109375" xlink:href="#DejaVuSans-102"/>
      <use x="372.314453" xlink:href="#DejaVuSans-95"/>
      <use x="422.314453" xlink:href="#DejaVuSans-109"/>
      <use x="519.726562" xlink:href="#DejaVuSans-101"/>
      <use x="581.25" xlink:href="#DejaVuSans-97"/>
      <use x="642.529297" xlink:href="#DejaVuSans-115"/>
      <use x="694.628906" xlink:href="#DejaVuSans-117"/>
      <use x="758.007812" xlink:href="#DejaVuSans-114"/>
      <use x="796.871094" xlink:href="#DejaVuSans-101"/>
      <use x="858.394531" xlink:href="#DejaVuSans-109"/>
      <use x="955.806641" xlink:href="#DejaVuSans-101"/>
      <use x="1017.330078" xlink:href="#DejaVuSans-110"/>
      <use x="1080.708984" xlink:href="#DejaVuSans-116"/>
     </g>
    </g>
   </g>
   <g id="matplotlib.axis_2">
    <g id="ytick_1">
     <g id="line2d_8">
      <defs>
       <path d="M 0 0 
L -3.5 0 
" id="mbb0cb31966" style="stroke:#000000;stroke-width:0.8;"/>
      </defs>
      <g>
       <use style="stroke:#000000;stroke-width:0.8;" x="40.88125" xlink:href="#mbb0cb31966" y="361.243997"/>
      </g>
     </g>
     <g id="text_9">
      <!-- 20 -->
      <g transform="translate(21.15625 365.043216)scale(0.1 -0.1)">
       <use xlink:href="#DejaVuSans-50"/>
       <use x="63.623047" xlink:href="#DejaVuSans-48"/>
      </g>
     </g>
    </g>
    <g id="ytick_2">
     <g id="line2d_9">
      <g>
       <use style="stroke:#000000;stroke-width:0.8;" x="40.88125" xlink:href="#mbb0cb31966" y="295.11699"/>
      </g>
     </g>
     <g id="text_10">
      <!-- 25 -->
      <g transform="translate(21.15625 298.916209)scale(0.1 -0.1)">
       <use xlink:href="#DejaVuSans-50"/>
       <use x="63.623047" xlink:href="#DejaVuSans-53"/>
      </g>
     </g>
    </g>
    <g id="ytick_3">
     <g id="line2d_10">
      <g>
       <use style="stroke:#000000;stroke-width:0.8;" x="40.88125" xlink:href="#mbb0cb31966" y="228.989982"/>
      </g>
     </g>
     <g id="text_11">
      <!-- 30 -->
      <g transform="translate(21.15625 232.789201)scale(0.1 -0.1)">
       <use xlink:href="#DejaVuSans-51"/>
       <use x="63.623047" xlink:href="#DejaVuSans-48"/>
      </g>
     </g>
    </g>
    <g id="ytick_4">
     <g id="line2d_11">
      <g>
       <use style="stroke:#000000;stroke-width:0.8;" x="40.88125" xlink:href="#mbb0cb31966" y="162.862975"/>
      </g>
     </g>
     <g id="text_12">
      <!-- 35 -->
      <g transform="translate(21.15625 166.662194)scale(0.1 -0.1)">
       <use xlink:href="#DejaVuSans-51"/>
       <use x="63.623047" xlink:href="#DejaVuSans-53"/>
      </g>
     </g>
    </g>
    <g id="ytick_5">
     <g id="line2d_12">
      <g>
       <use style="stroke:#000000;stroke-width:0.8;" x="40.88125" xlink:href="#mbb0cb31966" y="96.735968"/>
      </g>
     </g>
     <g id="text_13">
      <!-- 40 -->
      <g transform="translate(21.15625 100.535187)scale(0.1 -0.1)">
       <defs>
        <path d="M 37.796875 64.3125 
L 12.890625 25.390625 
L 37.796875 25.390625 
z
M 35.203125 72.90625 
L 47.609375 72.90625 
L 47.609375 25.390625 
L 58.015625 25.390625 
L 58.015625 17.1875 
L 47.609375 17.1875 
L 47.609375 0 
L 37.796875 0 
L 37.796875 17.1875 
L 4.890625 17.1875 
L 4.890625 26.703125 
z
" id="DejaVuSans-52"/>
       </defs>
       <use xlink:href="#DejaVuSans-52"/>
       <use x="63.623047" xlink:href="#DejaVuSans-48"/>
      </g>
     </g>
    </g>
    <g id="ytick_6">
     <g id="line2d_13">
      <g>
       <use style="stroke:#000000;stroke-width:0.8;" x="40.88125" xlink:href="#mbb0cb31966" y="30.608961"/>
      </g>
     </g>
     <g id="text_14">
      <!-- 45 -->
      <g transform="translate(21.15625 34.408179)scale(0.1 -0.1)">
       <use xlink:href="#DejaVuSans-52"/>
       <use x="63.623047" xlink:href="#DejaVuSans-53"/>
      </g>
     </g>
    </g>
    <g id="text_15">
     <!-- dry_bulb_temperature -->
     <g transform="translate(14.798438 262.027894)rotate(-90)scale(0.1 -0.1)">
      <defs>
       <path d="M 45.40625 46.390625 
L 45.40625 75.984375 
L 54.390625 75.984375 
L 54.390625 0 
L 45.40625 0 
L 45.40625 8.203125 
Q 42.578125 3.328125 38.25 0.953125 
Q 33.9375 -1.421875 27.875 -1.421875 
Q 17.96875 -1.421875 11.734375 6.484375 
Q 5.515625 14.40625 5.515625 27.296875 
Q 5.515625 40.1875 11.734375 48.09375 
Q 17.96875 56 27.875 56 
Q 33.9375 56 38.25 53.625 
Q 42.578125 51.265625 45.40625 46.390625 
z
M 14.796875 27.296875 
Q 14.796875 17.390625 18.875 11.75 
Q 22.953125 6.109375 30.078125 6.109375 
Q 37.203125 6.109375 41.296875 11.75 
Q 45.40625 17.390625 45.40625 27.296875 
Q 45.40625 37.203125 41.296875 42.84375 
Q 37.203125 48.484375 30.078125 48.484375 
Q 22.953125 48.484375 18.875 42.84375 
Q 14.796875 37.203125 14.796875 27.296875 
z
" id="DejaVuSans-100"/>
       <path d="M 32.171875 -5.078125 
Q 28.375 -14.84375 24.75 -17.8125 
Q 21.140625 -20.796875 15.09375 -20.796875 
L 7.90625 -20.796875 
L 7.90625 -13.28125 
L 13.1875 -13.28125 
Q 16.890625 -13.28125 18.9375 -11.515625 
Q 21 -9.765625 23.484375 -3.21875 
L 25.09375 0.875 
L 2.984375 54.6875 
L 12.5 54.6875 
L 29.59375 11.921875 
L 46.6875 54.6875 
L 56.203125 54.6875 
z
" id="DejaVuSans-121"/>
       <path d="M 48.6875 27.296875 
Q 48.6875 37.203125 44.609375 42.84375 
Q 40.53125 48.484375 33.40625 48.484375 
Q 26.265625 48.484375 22.1875 42.84375 
Q 18.109375 37.203125 18.109375 27.296875 
Q 18.109375 17.390625 22.1875 11.75 
Q 26.265625 6.109375 33.40625 6.109375 
Q 40.53125 6.109375 44.609375 11.75 
Q 48.6875 17.390625 48.6875 27.296875 
z
M 18.109375 46.390625 
Q 20.953125 51.265625 25.265625 53.625 
Q 29.59375 56 35.59375 56 
Q 45.5625 56 51.78125 48.09375 
Q 58.015625 40.1875 58.015625 27.296875 
Q 58.015625 14.40625 51.78125 6.484375 
Q 45.5625 -1.421875 35.59375 -1.421875 
Q 29.59375 -1.421875 25.265625 0.953125 
Q 20.953125 3.328125 18.109375 8.203125 
L 18.109375 0 
L 9.078125 0 
L 9.078125 75.984375 
L 18.109375 75.984375 
z
" id="DejaVuSans-98"/>
       <path d="M 9.421875 75.984375 
L 18.40625 75.984375 
L 18.40625 0 
L 9.421875 0 
z
" id="DejaVuSans-108"/>
       <path d="M 18.109375 8.203125 
L 18.109375 -20.796875 
L 9.078125 -20.796875 
L 9.078125 54.6875 
L 18.109375 54.6875 
L 18.109375 46.390625 
Q 20.953125 51.265625 25.265625 53.625 
Q 29.59375 56 35.59375 56 
Q 45.5625 56 51.78125 48.09375 
Q 58.015625 40.1875 58.015625 27.296875 
Q 58.015625 14.40625 51.78125 6.484375 
Q 45.5625 -1.421875 35.59375 -1.421875 
Q 29.59375 -1.421875 25.265625 0.953125 
Q 20.953125 3.328125 18.109375 8.203125 
z
M 48.6875 27.296875 
Q 48.6875 37.203125 44.609375 42.84375 
Q 40.53125 48.484375 33.40625 48.484375 
Q 26.265625 48.484375 22.1875 42.84375 
Q 18.109375 37.203125 18.109375 27.296875 
Q 18.109375 17.390625 22.1875 11.75 
Q 26.265625 6.109375 33.40625 6.109375 
Q 40.53125 6.109375 44.609375 11.75 
Q 48.6875 17.390625 48.6875 27.296875 
z
" id="DejaVuSans-112"/>
      </defs>
      <use xlink:href="#DejaVuSans-100"/>
      <use x="63.476562" xlink:href="#DejaVuSans-114"/>
      <use x="104.589844" xlink:href="#DejaVuSans-121"/>
      <use x="163.769531" xlink:href="#DejaVuSans-95"/>
      <use x="213.769531" xlink:href="#DejaVuSans-98"/>
      <use x="277.246094" xlink:href="#DejaVuSans-117"/>
      <use x="340.625" xlink:href="#DejaVuSans-108"/>
      <use x="368.408203" xlink:href="#DejaVuSans-98"/>
      <use x="431.884766" xlink:href="#DejaVuSans-95"/>
      <use x="481.884766" xlink:href="#DejaVuSans-116"/>
      <use x="521.09375" xlink:href="#DejaVuSans-101"/>
      <use x="582.617188" xlink:href="#DejaVuSans-109"/>
      <use x="680.029297" xlink:href="#DejaVuSans-112"/>
      <use x="743.505859" xlink:href="#DejaVuSans-101"/>
      <use x="805.029297" xlink:href="#DejaVuSans-114"/>
      <use x="846.142578" xlink:href="#DejaVuSans-97"/>
      <use x="907.421875" xlink:href="#DejaVuSans-116"/>
      <use x="946.630859" xlink:href="#DejaVuSans-117"/>
      <use x="1010.009766" xlink:href="#DejaVuSans-114"/>
      <use x="1048.873047" xlink:href="#DejaVuSans-101"/>
     </g>
    </g>
   </g>
   <g id="line2d_14">
    <path clip-path="url(#pab8666a755)" d="M 67.360886 353.308756 
L 67.541882 316.277632 
L 67.722877 255.440785 
L 67.903873 260.730946 
L 68.265864 305.697311 
L 68.446859 310.987472 
L 68.80885 361.243997 
L 68.989846 326.857953 
L 69.170841 260.730946 
L 69.351836 252.795705 
L 69.713827 303.052231 
L 69.894823 316.277632 
L 70.256814 366.534158 
L 70.437809 329.503034 
L 70.618805 266.021107 
L 70.7998 263.376026 
L 71.342787 326.857953 
L 71.704777 369.179238 
L 71.885773 334.793194 
L 72.066768 266.021107 
L 72.247764 263.376026 
L 72.609755 308.342391 
L 73.152741 369.179238 
L 73.333737 337.438274 
L 73.514732 263.376026 
L 73.695728 258.085866 
L 74.057719 305.697311 
L 74.238714 321.567793 
L 74.419709 350.663676 
L 74.600705 361.243997 
L 74.7817 329.503034 
L 75.143691 231.635063 
L 75.505682 313.632552 
L 76.048669 355.953836 
L 76.229664 329.503034 
L 76.41066 263.376026 
L 76.591655 263.376026 
L 76.953646 308.342391 
L 77.134641 313.632552 
L 77.496632 369.179238 
L 77.677628 326.857953 
L 77.858623 255.440785 
L 78.039619 260.730946 
L 78.220614 295.11699 
L 78.582605 321.567793 
L 78.944596 374.469399 
L 79.487582 258.085866 
L 79.849573 310.987472 
L 80.030569 318.922712 
L 80.39256 355.953836 
L 80.573555 329.503034 
L 80.754551 266.021107 
L 80.935546 255.440785 
L 81.297537 316.277632 
L 81.478533 332.148114 
L 81.659528 361.243997 
L 81.840523 369.179238 
L 82.38351 260.730946 
L 82.745501 310.987472 
L 82.926496 329.503034 
L 83.469483 324.212873 
L 83.650478 268.666187 
L 84.37446 316.277632 
L 84.736451 348.018596 
L 84.917446 310.987472 
L 85.098442 250.150625 
L 85.279437 247.505545 
L 85.460433 284.536669 
L 85.822424 329.503034 
L 86.184415 348.018596 
L 86.727401 250.150625 
L 87.270387 342.728435 
L 87.632378 363.889077 
L 87.994369 260.730946 
L 88.175365 250.150625 
L 88.537356 316.277632 
L 89.080342 332.148114 
L 89.261337 313.632552 
L 89.442333 263.376026 
L 89.623328 258.085866 
L 90.166315 329.503034 
L 90.528306 358.598917 
L 91.071292 252.795705 
L 91.614279 326.857953 
L 91.976269 350.663676 
L 92.157265 326.857953 
L 92.33826 250.150625 
L 92.519256 231.635063 
L 92.881247 287.181749 
L 93.062242 292.471909 
L 93.424233 316.277632 
L 93.605229 308.342391 
L 93.96722 197.249019 
L 94.32921 287.181749 
L 94.872197 337.438274 
L 95.053192 324.212873 
L 95.234188 226.344902 
L 95.415183 221.054742 
L 95.777174 281.891588 
L 95.95817 297.76207 
L 96.320161 353.308756 
L 96.682152 231.635063 
L 96.863147 236.925223 
L 97.406133 316.277632 
L 97.94912 316.277632 
L 98.130115 242.215384 
L 98.311111 242.215384 
L 98.854097 321.567793 
L 99.035093 348.018596 
L 99.216088 353.308756 
L 99.759074 231.635063 
L 100.302061 321.567793 
L 100.664052 350.663676 
L 100.845047 316.277632 
L 101.026043 234.280143 
L 101.207038 244.860464 
L 101.93102 340.083355 
L 102.112015 334.793194 
L 102.474006 247.505545 
L 102.655002 250.150625 
L 103.016993 295.11699 
L 103.197988 303.052231 
L 103.378984 305.697311 
L 103.740975 305.697311 
L 103.92197 242.215384 
L 104.102966 248.828085 
L 104.464956 295.11699 
L 104.826947 329.503034 
L 105.007943 334.793194 
L 105.369934 247.505545 
L 105.550929 244.860464 
L 105.91292 295.11699 
L 106.093916 303.052231 
L 106.274911 326.857953 
L 106.636902 301.729691 
L 106.817897 252.795705 
L 106.998893 242.215384 
L 107.541879 340.083355 
L 107.722875 350.663676 
L 108.084866 324.212873 
L 108.265861 236.925223 
L 108.446857 218.409661 
L 108.989843 321.567793 
L 109.170839 334.793194 
L 109.351834 361.243997 
L 109.532829 332.148114 
L 109.89482 202.53918 
L 110.256811 295.11699 
L 110.799798 329.503034 
L 110.980793 314.955092 
L 111.161789 260.730946 
L 111.342784 244.860464 
L 111.52378 276.601428 
L 111.88577 316.277632 
L 112.247761 332.148114 
L 112.609752 248.828085 
L 112.790748 231.635063 
L 113.152739 305.697311 
L 113.695725 358.598917 
L 114.057716 231.635063 
L 114.238712 236.925223 
L 114.600702 308.342391 
L 114.781698 308.342391 
L 115.143689 332.148114 
L 115.50568 242.215384 
L 115.686675 239.570304 
L 116.048666 289.826829 
L 116.229662 289.826829 
L 116.591653 321.567793 
L 116.953643 244.860464 
L 117.134639 236.925223 
L 117.49663 292.471909 
L 117.677625 297.76207 
L 117.858621 308.342391 
L 118.220612 268.666187 
L 118.401607 223.699822 
L 118.763598 258.085866 
L 119.125589 284.536669 
L 119.48758 297.76207 
L 119.849571 228.989982 
L 120.030566 236.925223 
L 120.392557 281.891588 
L 120.754548 289.826829 
L 120.935544 303.052231 
L 121.116539 263.376026 
L 121.297535 263.376026 
L 121.47853 242.215384 
L 122.021516 295.11699 
L 122.383507 295.11699 
L 122.745498 255.440785 
L 122.926494 242.215384 
L 123.288485 281.891588 
L 123.46948 287.181749 
L 123.650476 287.181749 
L 123.831471 289.826829 
L 124.193462 228.989982 
L 124.555453 255.440785 
L 125.098439 308.342391 
L 125.279435 316.277632 
L 125.641426 239.570304 
L 125.822421 236.925223 
L 126.184412 279.246508 
L 126.546403 300.40715 
L 126.908394 271.311267 
L 127.089389 215.764581 
L 127.45138 248.828085 
L 127.632376 276.601428 
L 127.813371 276.601428 
L 128.175362 295.11699 
L 128.537353 213.119501 
L 128.718349 215.764581 
L 128.899344 260.730946 
L 129.08034 260.730946 
L 129.261335 292.471909 
L 129.623326 313.632552 
L 129.985317 242.215384 
L 130.166312 228.989982 
L 130.528303 284.536669 
L 130.709299 289.826829 
L 131.07129 332.148114 
L 131.433281 231.635063 
L 131.795272 268.666187 
L 131.976267 289.826829 
L 132.157262 268.666187 
L 132.338258 308.342391 
L 132.519253 316.277632 
L 132.881244 239.570304 
L 133.243235 266.021107 
L 134.148213 287.181749 
L 134.510203 242.215384 
L 135.05319 295.11699 
L 135.415181 332.148114 
L 135.958167 207.82934 
L 136.320158 281.891588 
L 136.501154 284.536669 
L 136.561485 281.891588 
L 136.863144 297.76207 
L 137.225135 223.699822 
L 137.406131 186.668698 
L 137.768122 284.536669 
L 138.130113 289.826829 
L 138.492104 271.311267 
L 138.673099 231.635063 
L 138.854095 239.570304 
L 139.216086 281.891588 
L 139.578076 287.181749 
L 139.759072 287.181749 
L 140.121063 242.215384 
L 140.302058 250.150625 
L 140.664049 273.956347 
L 140.845045 276.601428 
L 141.207036 289.826829 
L 141.388031 276.601428 
L 141.569027 250.150625 
L 141.931017 318.922712 
L 142.112013 316.277632 
L 142.293008 300.40715 
L 142.474004 303.052231 
L 142.654999 321.567793 
L 142.835995 310.987472 
L 143.197986 268.666187 
L 143.559977 284.536669 
L 144.102963 300.40715 
L 144.464954 247.505545 
L 144.645949 250.150625 
L 144.826945 268.666187 
L 145.550927 287.181749 
L 145.912918 252.795705 
L 146.093913 252.795705 
L 146.274909 266.021107 
L 146.6369 281.891588 
L 146.99889 287.181749 
L 147.179886 284.536669 
L 147.541877 252.795705 
L 147.903868 276.601428 
L 148.265859 281.891588 
L 148.62785 279.246508 
L 148.808845 252.795705 
L 149.170836 273.956347 
L 149.532827 316.277632 
L 149.894818 316.277632 
L 150.075813 310.987472 
L 150.256809 295.11699 
L 150.6188 273.956347 
L 150.799795 287.181749 
L 150.980791 287.181749 
L 151.342782 313.632552 
L 151.885768 236.925223 
L 152.247759 289.826829 
L 152.790745 334.793194 
L 153.152736 236.925223 
L 153.333732 226.344902 
L 153.514727 250.150625 
L 153.876718 316.277632 
L 154.419704 308.342391 
L 154.781695 178.733457 
L 154.962691 205.18426 
L 155.324682 324.212873 
L 155.686673 366.534158 
L 155.867668 316.277632 
L 156.048664 218.409661 
L 156.229659 197.249019 
L 156.410655 218.409661 
L 156.59165 297.76207 
L 156.772646 326.857953 
L 157.134636 345.373515 
L 157.315632 307.019851 
L 157.677623 178.733457 
L 157.858618 221.054742 
L 158.039614 292.471909 
L 158.5826 340.083355 
L 158.763596 318.922712 
L 158.944591 207.82934 
L 159.125587 191.958858 
L 159.487577 287.181749 
L 160.030564 332.148114 
L 160.392555 228.989982 
L 160.57355 215.764581 
L 161.297532 318.922712 
L 161.478528 334.793194 
L 161.840519 221.054742 
L 162.021514 221.054742 
L 162.202509 255.440785 
L 162.745496 313.632552 
L 162.926491 321.567793 
L 163.288482 213.119501 
L 163.469478 223.699822 
L 163.650473 252.795705 
L 163.831469 247.505545 
L 164.012464 295.11699 
L 164.374455 308.342391 
L 164.736446 210.47442 
L 164.917441 210.47442 
L 165.279432 266.021107 
L 165.822419 308.342391 
L 166.18441 213.119501 
L 166.365405 207.82934 
L 166.727396 260.730946 
L 166.908391 263.376026 
L 167.089387 268.666187 
L 167.270382 292.471909 
L 167.451378 263.376026 
L 167.632373 194.603939 
L 167.813369 202.53918 
L 168.356355 276.601428 
L 168.537351 281.891588 
L 168.718346 303.052231 
L 169.261333 186.668698 
L 169.442328 215.764581 
L 169.623323 268.666187 
L 170.16631 308.342391 
L 170.528301 199.894099 
L 170.709296 184.023618 
L 171.071287 268.666187 
L 171.252283 273.956347 
L 171.614274 295.11699 
L 171.976264 189.313778 
L 172.519251 266.021107 
L 172.700246 271.311267 
L 173.062237 303.052231 
L 173.424228 186.668698 
L 173.605224 202.53918 
L 173.967215 268.666187 
L 174.14821 273.956347 
L 174.510201 310.987472 
L 174.872192 207.82934 
L 175.053187 215.764581 
L 175.234183 228.989982 
L 175.415178 268.666187 
L 175.958165 303.052231 
L 176.320156 189.313778 
L 176.501151 199.894099 
L 177.044137 271.311267 
L 177.406128 300.40715 
L 177.587124 242.215384 
L 177.768119 221.054742 
L 177.949115 218.409661 
L 178.13011 244.860464 
L 178.854092 297.76207 
L 179.035088 242.215384 
L 179.397078 191.958858 
L 179.759069 263.376026 
L 179.940065 276.601428 
L 180.302056 292.471909 
L 180.845042 170.798216 
L 181.207033 268.666187 
L 181.388029 276.601428 
L 181.75002 308.342391 
L 182.11201 202.53918 
L 182.293006 197.249019 
L 183.016988 289.826829 
L 183.197983 279.246508 
L 183.559974 215.764581 
L 183.74097 213.119501 
L 184.464951 305.697311 
L 184.645947 289.826829 
L 185.188933 215.764581 
L 185.73192 292.471909 
L 186.093911 318.922712 
L 186.455902 223.699822 
L 186.636897 215.764581 
L 186.998888 276.601428 
L 187.179883 281.891588 
L 187.541874 316.277632 
L 188.084861 221.054742 
L 188.808843 308.342391 
L 188.989838 321.567793 
L 189.170834 273.956347 
L 189.351829 189.313778 
L 189.71382 236.925223 
L 190.075811 310.987472 
L 190.437802 318.922712 
L 190.799793 213.119501 
L 191.523775 266.021107 
L 191.885766 289.826829 
L 191.946097 218.409661 
L 192.066761 250.150625 
L 192.247756 218.409661 
L 192.428752 223.699822 
L 192.790743 266.021107 
L 192.971738 268.666187 
L 193.152734 273.956347 
L 193.333729 289.826829 
L 193.69572 215.764581 
L 193.876716 210.47442 
L 194.419702 273.956347 
L 194.781693 295.11699 
L 195.143684 215.764581 
L 195.324679 197.249019 
L 195.867666 284.536669 
L 196.229657 300.40715 
L 196.591648 213.119501 
L 197.67762 300.40715 
L 198.039611 207.82934 
L 198.220607 189.313778 
L 198.582598 260.730946 
L 198.763593 263.376026 
L 199.125584 287.181749 
L 199.487575 202.53918 
L 199.66857 213.119501 
L 200.030561 255.440785 
L 200.211557 260.730946 
L 200.573548 279.246508 
L 200.935539 197.249019 
L 201.116534 194.603939 
L 201.478525 250.150625 
L 202.021511 281.891588 
L 202.383502 189.313778 
L 202.564498 194.603939 
L 202.926489 250.150625 
L 203.107484 258.085866 
L 203.469475 284.536669 
L 203.831466 189.313778 
L 204.193457 218.409661 
L 204.555448 263.376026 
L 204.917439 284.536669 
L 205.27943 176.088377 
L 205.460425 184.023618 
L 206.003412 255.440785 
L 206.184407 260.730946 
L 206.365403 271.311267 
L 206.727394 176.088377 
L 206.908389 170.798216 
L 207.27038 247.505545 
L 207.813366 273.956347 
L 208.175357 173.443296 
L 208.356353 168.153136 
L 208.718344 247.505545 
L 208.899339 255.440785 
L 209.442325 221.054742 
L 209.804316 144.347413 
L 210.347303 252.795705 
L 210.709294 266.021107 
L 211.25228 144.347413 
L 211.614271 242.215384 
L 211.795267 247.505545 
L 212.157257 268.666187 
L 212.519248 176.088377 
L 212.700244 181.378537 
L 213.062235 242.215384 
L 213.24323 250.150625 
L 213.605221 260.730946 
L 213.786217 213.119501 
L 214.148208 189.313778 
L 214.510198 242.215384 
L 214.691194 250.150625 
L 215.053185 271.311267 
L 215.23418 218.409661 
L 215.596171 189.313778 
L 215.958162 242.215384 
L 216.139158 244.860464 
L 216.501149 260.730946 
L 216.86314 170.798216 
L 217.044135 170.798216 
L 217.406126 239.570304 
L 217.587121 258.085866 
L 217.768117 258.085866 
L 217.949112 255.440785 
L 218.311103 149.637574 
L 218.492099 189.313778 
L 218.85409 234.280143 
L 219.035085 235.602683 
L 219.397076 247.505545 
L 219.759067 168.153136 
L 219.940062 168.153136 
L 220.302053 228.989982 
L 220.84504 242.215384 
L 221.207031 184.023618 
L 221.388026 184.023618 
L 221.750017 234.280143 
L 221.931013 289.826829 
L 222.112008 263.376026 
L 222.293003 271.311267 
L 222.654994 176.088377 
L 223.378976 247.505545 
L 223.740967 263.376026 
L 224.102958 181.378537 
L 224.283954 170.798216 
L 224.645944 244.860464 
L 225.007935 263.376026 
L 225.188931 292.471909 
L 225.731917 141.702333 
L 225.912913 176.088377 
L 226.093908 242.215384 
L 226.455899 260.730946 
L 226.636895 276.601428 
L 226.998885 162.862975 
L 227.179881 141.702333 
L 227.360876 207.82934 
L 227.722867 263.376026 
L 228.265854 221.054742 
L 228.446849 160.217895 
L 228.627845 144.347413 
L 228.80884 181.378537 
L 228.989836 244.860464 
L 229.170831 268.666187 
L 229.351827 268.666187 
L 229.532822 271.311267 
L 230.075808 133.767092 
L 230.437799 236.925223 
L 230.618795 239.570304 
L 230.980786 266.021107 
L 231.523772 123.186771 
L 231.704768 202.53918 
L 231.885763 230.312523 
L 232.247754 252.795705 
L 232.428749 266.021107 
L 232.971736 152.282654 
L 233.152731 210.47442 
L 233.514722 234.280143 
L 233.876713 250.150625 
L 234.238704 170.798216 
L 234.4197 173.443296 
L 234.962686 228.989982 
L 235.324677 250.150625 
L 235.686668 162.862975 
L 235.867663 173.443296 
L 236.229654 227.667442 
L 236.41065 234.280143 
L 236.772641 263.376026 
L 236.953636 199.894099 
L 237.315627 149.637574 
L 237.677618 223.699822 
L 238.039609 242.215384 
L 238.220604 255.440785 
L 238.4016 203.86172 
L 238.582595 186.668698 
L 238.763591 191.958858 
L 239.125582 228.989982 
L 239.668568 247.505545 
L 239.849563 197.249019 
L 240.211554 165.508055 
L 240.573545 226.344902 
L 241.116532 244.860464 
L 241.478523 184.023618 
L 241.659518 189.313778 
L 242.564495 255.440785 
L 242.745491 199.894099 
L 242.926486 178.733457 
L 243.107482 173.443296 
L 243.469473 226.344902 
L 244.012459 242.215384 
L 244.37445 162.862975 
L 244.555445 173.443296 
L 244.917436 228.989982 
L 245.460423 236.925223 
L 245.641418 202.53918 
L 246.003409 162.862975 
L 246.3654 226.344902 
L 246.546396 236.925223 
L 246.727391 289.826829 
L 246.908387 266.021107 
L 247.270377 157.572815 
L 247.451373 173.443296 
L 247.813364 239.570304 
L 247.994359 242.215384 
L 248.35635 263.376026 
L 248.718341 168.153136 
L 248.899337 141.702333 
L 249.261328 234.280143 
L 249.442323 242.215384 
L 249.623318 258.085866 
L 249.804314 284.536669 
L 250.166305 157.572815 
L 250.890287 244.860464 
L 251.252278 260.730946 
L 251.614269 156.250274 
L 251.795264 199.894099 
L 251.97626 207.82934 
L 252.519246 273.956347 
L 252.881237 266.021107 
L 253.062232 226.344902 
L 253.243228 213.119501 
L 253.424223 218.409661 
L 253.786214 260.730946 
L 253.96721 266.021107 
L 254.148205 276.601428 
L 254.510196 170.798216 
L 254.691191 156.250274 
L 255.053182 228.989982 
L 255.415173 247.505545 
L 255.596169 258.085866 
L 255.95816 157.572815 
L 256.139155 168.153136 
L 256.682142 231.635063 
L 257.044132 239.570304 
L 257.406123 144.347413 
L 257.94911 221.054742 
L 258.311101 231.635063 
L 258.492096 244.860464 
L 259.035083 78.220406 
L 259.216078 162.862975 
L 259.397074 194.603939 
L 259.578069 202.53918 
L 259.94006 228.989982 
L 260.121055 170.798216 
L 260.483046 37.221661 
L 260.664042 70.285165 
L 260.845037 144.347413 
L 261.388024 226.344902 
L 261.93101 25.3188 
L 262.293001 144.347413 
L 262.654992 189.313778 
L 262.835987 210.47442 
L 263.378974 38.544201 
L 263.559969 64.995004 
L 263.92196 181.378537 
L 264.102956 228.989982 
L 264.283951 223.699822 
L 264.826937 78.220406 
L 265.188928 244.860464 
L 265.369924 221.054742 
L 265.550919 223.699822 
L 265.731915 228.989982 
L 265.91291 194.603939 
L 266.093906 131.122012 
L 266.455897 131.122012 
L 266.636892 189.313778 
L 266.817888 207.82934 
L 266.998883 207.82934 
L 267.179878 228.989982 
L 267.360874 210.47442 
L 267.722865 91.445807 
L 267.90386 123.186771 
L 268.265851 218.409661 
L 268.808838 186.668698 
L 269.170829 94.090888 
L 269.351824 128.476931 
L 269.53282 197.249019 
L 269.713815 215.764581 
L 270.075806 228.989982 
L 270.618792 88.800727 
L 270.799788 107.316289 
L 270.980783 191.958858 
L 271.161779 218.409661 
L 271.52377 228.989982 
L 272.066756 88.800727 
L 272.247751 96.735968 
L 272.609742 199.894099 
L 272.790738 223.699822 
L 272.971733 210.47442 
L 273.152729 210.47442 
L 273.333724 154.927734 
L 273.51472 141.702333 
L 274.057706 223.699822 
L 274.238702 226.344902 
L 274.419697 226.344902 
L 274.600692 199.894099 
L 274.781688 128.476931 
L 274.962683 109.961369 
L 275.324674 210.47442 
L 275.686665 215.764581 
L 275.867661 223.699822 
L 276.048656 199.894099 
L 276.410647 189.313778 
L 276.591643 191.958858 
L 276.953634 234.280143 
L 277.315624 236.925223 
L 277.858611 107.316289 
L 278.220602 202.53918 
L 278.582593 242.215384 
L 278.763588 226.344902 
L 279.306575 104.671209 
L 279.48757 184.023618 
L 279.849561 226.344902 
L 280.211552 236.925223 
L 280.573543 133.767092 
L 280.754538 115.25153 
L 280.935534 194.603939 
L 281.116529 218.409661 
L 281.659516 239.570304 
L 282.202502 83.510566 
L 282.383497 115.25153 
L 282.564493 184.023618 
L 282.926484 223.699822 
L 283.107479 228.989982 
L 283.650466 80.865486 
L 283.831461 184.023618 
L 284.012457 207.82934 
L 284.193452 207.82934 
L 284.374448 213.119501 
L 284.555443 234.280143 
L 284.736438 176.088377 
L 284.917434 157.572815 
L 285.098429 91.445807 
L 285.279425 102.026128 
L 285.641416 199.894099 
L 286.003407 247.505545 
L 286.184402 297.76207 
L 286.546393 157.572815 
L 286.727389 157.572815 
L 286.908384 221.054742 
L 287.089379 228.989982 
L 287.45137 255.440785 
L 287.632366 247.505545 
L 287.994357 128.476931 
L 288.356348 221.054742 
L 288.537343 228.989982 
L 288.718339 300.40715 
L 289.08033 284.536669 
L 289.442321 176.088377 
L 289.623316 184.023618 
L 289.985307 258.085866 
L 290.166302 252.795705 
L 290.347298 271.311267 
L 290.890284 144.347413 
L 291.433271 252.795705 
L 291.795262 279.246508 
L 292.338248 207.82934 
L 292.700239 236.925223 
L 293.06223 287.181749 
L 293.243225 289.826829 
L 293.424221 295.11699 
L 293.967207 268.666187 
L 294.148203 268.666187 
L 294.329198 276.601428 
L 294.872184 292.471909 
L 295.05318 234.280143 
L 295.234175 215.764581 
L 295.415171 228.989982 
L 295.777162 287.181749 
L 296.139153 273.956347 
L 296.682139 197.249019 
L 296.863135 223.699822 
L 297.225125 239.570304 
L 297.768112 202.53918 
L 297.949107 176.088377 
L 298.130103 176.088377 
L 298.673089 239.570304 
L 298.854085 247.505545 
L 299.216076 207.82934 
L 299.578067 146.992493 
L 299.940057 228.989982 
L 300.121053 236.925223 
L 300.302048 239.570304 
L 300.483044 247.505545 
L 301.02603 141.702333 
L 301.569017 234.280143 
L 301.750012 234.280143 
L 301.931008 252.795705 
L 302.292998 178.733457 
L 302.473994 170.798216 
L 303.01698 228.989982 
L 303.378971 268.666187 
L 303.559967 260.730946 
L 304.102953 226.344902 
L 304.464944 258.085866 
L 304.826935 268.666187 
L 305.00793 244.860464 
L 305.369921 168.153136 
L 305.550917 165.508055 
L 305.731912 202.53918 
L 305.912908 213.119501 
L 306.093903 242.215384 
L 306.274899 247.505545 
L 306.455894 236.925223 
L 306.63689 181.378537 
L 306.998881 169.475676 
L 307.360871 228.989982 
L 307.541867 239.570304 
L 307.722862 242.215384 
L 308.265849 144.347413 
L 308.446844 162.862975 
L 308.808835 226.344902 
L 309.170826 236.925223 
L 309.351822 223.699822 
L 309.532817 165.508055 
L 309.713812 146.992493 
L 309.894808 149.637574 
L 310.256799 226.344902 
L 310.61879 244.860464 
L 310.799785 236.925223 
L 310.980781 197.249019 
L 311.161776 184.023618 
L 311.342772 189.313778 
L 312.066754 266.021107 
L 312.60974 194.603939 
L 312.790735 205.18426 
L 313.152726 244.860464 
L 313.333722 258.085866 
L 313.514717 287.181749 
L 313.876708 218.409661 
L 314.057704 210.47442 
L 314.238699 263.376026 
L 314.419695 260.730946 
L 314.60069 263.376026 
L 314.781685 263.376026 
L 314.962681 260.730946 
L 315.143676 242.215384 
L 315.324672 176.088377 
L 315.505667 160.217895 
L 315.686663 239.570304 
L 315.867658 252.795705 
L 316.048654 242.215384 
L 316.410645 252.795705 
L 316.59164 244.860464 
L 316.953631 186.668698 
L 317.134626 215.764581 
L 317.858608 276.601428 
L 318.401595 218.409661 
L 318.58259 268.666187 
L 318.763586 276.601428 
L 319.125577 260.730946 
L 319.306572 252.795705 
L 319.487568 236.925223 
L 319.849558 157.572815 
L 320.030554 189.313778 
L 320.211549 273.956347 
L 320.392545 297.76207 
L 320.57354 289.826829 
L 320.754536 292.471909 
L 320.935531 266.021107 
L 321.297522 162.862975 
L 321.478518 168.153136 
L 321.840509 242.215384 
L 322.202499 247.505545 
L 322.745486 146.992493 
L 322.926481 149.637574 
L 323.107477 207.82934 
L 323.288472 228.989982 
L 323.650463 236.925223 
L 323.831459 210.47442 
L 324.012454 165.508055 
L 324.19345 149.637574 
L 324.555441 197.249019 
L 325.098427 295.11699 
L 325.279422 275.278888 
L 325.460418 202.53918 
L 325.641413 184.023618 
L 325.822409 199.894099 
L 326.1844 297.76207 
L 326.365395 305.697311 
L 326.727386 292.471909 
L 326.908382 279.246508 
L 327.089377 287.181749 
L 327.270372 310.987472 
L 327.451368 316.277632 
L 327.813359 303.052231 
L 328.17535 292.471909 
L 328.356345 276.601428 
L 328.537341 295.11699 
L 328.899332 300.40715 
L 329.080327 300.40715 
L 329.261323 303.052231 
L 329.442318 300.40715 
L 329.623314 292.471909 
L 329.985304 234.280143 
L 330.1663 231.635063 
L 330.347295 252.795705 
L 330.528291 258.085866 
L 330.890282 289.826829 
L 331.071277 266.021107 
L 331.433268 189.313778 
L 331.614264 205.18426 
L 331.795259 247.505545 
L 331.976255 255.440785 
L 332.15725 258.085866 
L 332.338245 276.601428 
L 332.519241 260.730946 
L 332.700236 202.53918 
L 332.881232 250.150625 
L 333.062227 213.119501 
L 333.424218 281.891588 
L 333.786209 292.471909 
L 333.967205 284.536669 
L 334.1482 247.505545 
L 334.329196 258.085866 
L 334.510191 260.730946 
L 334.691186 276.601428 
L 335.415168 244.860464 
L 335.596164 199.894099 
L 335.777159 221.054742 
L 335.958155 281.891588 
L 336.13915 268.666187 
L 336.320146 287.181749 
L 336.682137 289.826829 
L 336.863132 287.181749 
L 337.044128 295.11699 
L 337.406118 263.376026 
L 337.768109 273.956347 
L 338.1301 292.471909 
L 338.311096 273.956347 
L 338.673087 205.18426 
L 338.854082 205.18426 
L 339.216073 289.826829 
L 339.578064 297.76207 
L 339.759059 284.536669 
L 340.12105 234.280143 
L 340.302046 234.280143 
L 340.664037 255.440785 
L 341.207023 263.376026 
L 341.569014 207.82934 
L 341.75001 202.53918 
L 342.112001 247.505545 
L 342.473991 273.956347 
L 343.016978 199.894099 
L 343.197973 207.82934 
L 343.378969 228.989982 
L 343.559964 271.311267 
L 343.921955 279.246508 
L 344.102951 266.021107 
L 344.464942 194.603939 
L 345.007928 279.246508 
L 345.369919 289.826829 
L 345.550914 289.826829 
L 345.73191 287.181749 
L 345.912905 276.601428 
L 346.093901 276.601428 
L 346.274896 287.181749 
L 346.455892 289.826829 
L 346.636887 297.76207 
L 346.817883 295.11699 
L 347.179874 239.570304 
L 347.541864 239.570304 
L 347.903855 266.021107 
L 348.265846 273.956347 
L 348.446842 266.021107 
L 348.627837 226.344902 
L 348.808833 218.409661 
L 349.170824 258.085866 
L 349.351819 255.440785 
L 349.71381 268.666187 
L 349.894805 252.795705 
L 350.075801 215.764581 
L 350.256796 221.054742 
L 350.437792 202.53918 
L 350.618787 242.215384 
L 350.799783 255.440785 
L 351.161774 268.666187 
L 351.342769 244.860464 
L 351.523765 202.53918 
L 351.885756 184.023618 
L 352.247746 234.280143 
L 352.609737 260.730946 
L 352.790733 252.795705 
L 352.971728 210.47442 
L 353.152724 194.603939 
L 353.333719 207.82934 
L 353.514715 234.280143 
L 354.057701 255.440785 
L 354.600688 210.47442 
L 354.781683 217.087121 
L 354.962678 242.215384 
L 355.143674 236.925223 
L 355.505665 266.021107 
L 355.68666 242.215384 
L 356.229647 221.054742 
L 356.591638 255.440785 
L 356.772633 266.021107 
L 356.953629 268.666187 
L 357.315619 202.53918 
L 357.496615 202.53918 
L 357.67761 205.18426 
L 358.039601 242.215384 
L 358.220597 242.215384 
L 358.401592 260.730946 
L 358.582588 236.925223 
L 358.944579 162.862975 
L 359.487565 247.505545 
L 359.668561 250.150625 
L 359.849556 258.085866 
L 360.392542 162.862975 
L 360.935529 247.505545 
L 361.29752 260.730946 
L 361.840506 141.702333 
L 362.021502 263.376026 
L 362.202497 260.730946 
L 362.383492 263.376026 
L 362.745483 263.376026 
L 363.28847 160.217895 
L 363.469465 244.860464 
L 363.650461 250.150625 
L 363.831456 250.150625 
L 364.193447 255.440785 
L 364.736433 157.572815 
L 364.917429 207.82934 
L 365.27942 263.376026 
L 365.460415 263.376026 
L 365.641411 260.730946 
L 365.822406 228.989982 
L 366.365393 242.215384 
L 367.089375 268.666187 
L 367.27037 244.860464 
L 367.632361 162.862975 
L 367.813356 223.699822 
L 368.175347 255.440785 
L 368.356343 258.085866 
L 368.537338 255.440785 
L 368.718334 268.666187 
L 368.899329 260.730946 
L 369.080325 221.054742 
L 369.26132 215.764581 
L 369.442316 250.150625 
L 369.623311 260.730946 
L 369.985302 305.697311 
L 370.166297 313.632552 
L 370.528288 242.215384 
L 370.709284 230.312523 
L 371.071275 263.376026 
L 371.433266 268.666187 
L 371.614261 308.342391 
L 371.795257 287.181749 
L 372.157248 210.47442 
L 372.338243 247.505545 
L 372.519238 255.440785 
L 372.881229 263.376026 
L 373.24322 236.925223 
L 373.605211 191.958858 
L 373.967202 276.601428 
L 374.148198 276.601428 
L 374.329193 268.666187 
L 374.872179 186.668698 
L 375.23417 239.570304 
L 375.777157 255.440785 
L 376.139148 184.023618 
L 376.320143 194.603939 
L 376.682134 234.280143 
L 377.044125 242.215384 
L 377.225121 289.826829 
L 377.768107 176.088377 
L 378.311093 247.505545 
L 378.673084 258.085866 
L 379.035075 189.313778 
L 379.397066 213.119501 
L 379.578062 242.215384 
L 379.940052 255.440785 
L 380.121048 263.376026 
L 380.664034 162.862975 
L 380.84503 202.53918 
L 381.388016 255.440785 
L 381.569012 252.795705 
L 382.111998 157.572815 
L 382.473989 279.246508 
L 382.654984 268.666187 
L 383.016975 273.956347 
L 383.197971 255.440785 
L 383.559962 146.992493 
L 383.740957 215.764581 
L 383.921953 242.215384 
L 384.102948 289.826829 
L 384.645935 266.021107 
L 385.007925 213.119501 
L 385.188921 211.796961 
L 385.369916 247.505545 
L 385.912903 281.891588 
L 386.093898 284.536669 
L 386.455889 244.860464 
L 386.81788 258.085866 
L 387.360866 289.826829 
L 387.541862 284.536669 
L 387.722857 252.795705 
L 387.903853 247.505545 
L 388.265844 271.311267 
L 388.446839 289.826829 
L 388.989826 313.632552 
L 389.170821 308.342391 
L 389.351817 284.536669 
L 389.532812 289.826829 
L 389.713808 287.181749 
L 389.894803 281.891588 
L 390.075798 295.11699 
L 390.256794 295.11699 
L 390.79978 213.119501 
L 390.980776 221.054742 
L 391.161771 252.795705 
L 391.704758 276.601428 
L 392.066749 202.53918 
L 392.247744 194.603939 
L 392.428739 207.82934 
L 392.609735 247.505545 
L 392.79073 255.440785 
L 392.971726 258.085866 
L 393.152721 263.376026 
L 393.514712 234.280143 
L 393.695708 184.023618 
L 394.238694 250.150625 
L 394.41969 263.376026 
L 394.78168 316.277632 
L 395.143671 234.280143 
L 395.324667 279.246508 
L 395.505662 279.246508 
L 395.686658 281.891588 
L 396.048649 281.891588 
L 396.591635 199.894099 
L 396.953626 281.891588 
L 397.134622 289.826829 
L 397.496612 276.601428 
L 397.858603 215.764581 
L 398.039599 207.82934 
L 398.220594 194.603939 
L 398.40159 258.085866 
L 398.582585 263.376026 
L 398.944576 263.376026 
L 399.487563 186.668698 
L 399.668558 189.313778 
L 399.849553 226.344902 
L 400.211544 247.505545 
L 400.39254 297.76207 
L 401.478513 268.666187 
L 401.659508 303.052231 
L 401.840504 300.40715 
L 402.021499 300.40715 
L 402.38349 242.215384 
L 402.564485 250.150625 
L 402.745481 287.181749 
L 402.926476 289.826829 
L 403.288467 289.826829 
L 403.469463 284.536669 
L 404.012449 258.085866 
L 404.193445 303.052231 
L 404.37444 310.987472 
L 404.555436 313.632552 
L 405.279417 295.11699 
L 405.460413 292.471909 
L 405.641408 292.471909 
L 405.822404 295.11699 
L 406.184395 289.826829 
L 406.36539 295.11699 
L 406.727381 281.891588 
L 406.908377 281.891588 
L 407.089372 297.76207 
L 407.270368 295.11699 
L 407.451363 297.76207 
L 407.632358 303.052231 
L 407.813354 300.40715 
L 407.994349 295.11699 
L 408.175345 284.536669 
L 408.35634 287.181749 
L 408.718331 297.76207 
L 409.080322 295.11699 
L 409.261318 289.826829 
L 409.442313 255.440785 
L 409.623309 242.215384 
L 409.804304 239.570304 
L 409.985299 260.730946 
L 410.166295 260.730946 
L 410.528286 276.601428 
L 411.071272 202.53918 
L 411.252268 215.764581 
L 411.433263 244.860464 
L 411.614259 255.440785 
L 411.97625 287.181749 
L 412.157245 287.181749 
L 412.33824 281.891588 
L 412.519236 260.730946 
L 412.700231 262.053486 
L 413.424213 287.181749 
L 413.605209 273.956347 
L 413.786204 228.989982 
L 413.9672 242.215384 
L 414.148195 242.215384 
L 414.329191 281.891588 
L 414.510186 268.666187 
L 414.691182 276.601428 
L 414.872177 273.956347 
L 415.053172 266.021107 
L 415.234168 218.409661 
L 415.415163 221.054742 
L 415.596159 221.054742 
L 415.777154 268.666187 
L 415.95815 260.730946 
L 416.320141 276.601428 
L 416.501136 258.085866 
L 416.863127 199.894099 
L 417.044123 210.47442 
L 417.225118 268.666187 
L 417.406113 263.376026 
L 417.9491 273.956347 
L 418.130095 250.150625 
L 418.311091 255.440785 
L 418.492086 284.536669 
L 418.673082 266.021107 
L 418.854077 263.376026 
L 419.216068 284.536669 
L 419.397064 273.956347 
L 419.759055 215.764581 
L 420.121045 247.505545 
L 420.302041 255.440785 
L 420.664032 276.601428 
L 421.207018 194.603939 
L 421.388014 202.53918 
L 421.750005 263.376026 
L 422.111996 303.052231 
L 422.473986 215.764581 
L 422.654982 195.926479 
L 422.835977 195.926479 
L 423.016973 223.699822 
L 423.740955 271.311267 
L 424.102946 202.53918 
L 424.283941 202.53918 
L 424.464937 239.570304 
L 425.007923 271.311267 
L 425.188918 252.795705 
L 425.550909 199.894099 
L 425.731905 197.249019 
L 426.093896 250.150625 
L 426.274891 268.666187 
L 426.455887 266.021107 
L 426.636882 244.860464 
L 426.817878 202.53918 
L 427.179869 194.603939 
L 427.541859 250.150625 
L 427.722855 263.376026 
L 427.90385 263.376026 
L 428.265841 207.82934 
L 428.446837 189.313778 
L 428.627832 195.926479 
L 428.989823 255.440785 
L 429.351814 260.730946 
L 429.53281 244.860464 
L 429.8948 184.023618 
L 430.256791 242.215384 
L 430.437787 247.505545 
L 430.980773 231.635063 
L 431.161769 189.313778 
L 431.342764 181.378537 
L 431.704755 248.828085 
L 432.066746 266.021107 
L 432.247742 266.021107 
L 432.609732 191.958858 
L 432.790728 178.733457 
L 432.971723 189.313778 
L 433.333714 255.440785 
L 433.695705 260.730946 
L 434.238692 176.088377 
L 434.600683 234.280143 
L 434.781678 250.150625 
L 435.143669 263.376026 
L 435.686655 170.798216 
L 436.229642 244.860464 
L 436.591633 271.311267 
L 437.134619 168.153136 
L 438.039596 262.053486 
L 438.582583 165.508055 
L 438.763578 184.023618 
L 438.944574 239.570304 
L 439.48756 252.795705 
L 439.668556 228.989982 
L 440.030546 162.862975 
L 440.211542 189.313778 
L 440.392537 250.150625 
L 440.754528 260.730946 
L 440.935524 255.440785 
L 441.297515 176.088377 
L 441.47851 226.344902 
L 441.659506 239.570304 
L 442.383487 250.150625 
L 442.564483 213.119501 
L 442.745478 202.53918 
L 442.926474 266.021107 
L 443.107469 236.925223 
L 443.288465 244.860464 
L 443.46946 247.505545 
L 443.831451 255.440785 
L 444.193442 197.249019 
L 444.374438 199.894099 
L 444.555433 228.989982 
L 444.736429 239.570304 
L 445.279415 255.440785 
L 445.641406 213.119501 
L 445.822401 263.376026 
L 446.003397 250.150625 
L 446.365388 281.891588 
L 446.727379 303.052231 
L 446.908374 281.891588 
L 447.08937 228.989982 
L 447.270365 215.764581 
L 447.632356 255.440785 
L 447.813351 266.021107 
L 448.175342 276.601428 
L 448.537333 207.82934 
L 448.718329 202.53918 
L 449.08032 244.860464 
L 449.623306 281.891588 
L 449.804302 271.311267 
L 449.985297 215.764581 
L 450.166292 226.344902 
L 450.347288 244.860464 
L 451.07127 276.601428 
L 451.433261 215.764581 
L 452.157243 247.505545 
L 452.519233 287.181749 
L 452.881224 218.409661 
L 453.06222 215.764581 
L 453.243215 236.925223 
L 453.967197 268.666187 
L 454.148193 250.150625 
L 454.329188 202.53918 
L 454.510184 205.18426 
L 455.234165 287.181749 
L 455.415161 292.471909 
L 455.777152 210.47442 
L 455.958147 207.82934 
L 456.139143 236.925223 
L 456.320138 242.215384 
L 456.863125 271.311267 
L 457.225116 223.699822 
L 457.587106 268.666187 
L 457.949097 273.956347 
L 458.130093 287.181749 
L 458.311088 289.826829 
L 458.673079 234.280143 
L 458.854075 271.311267 
L 459.03507 258.085866 
L 459.216066 268.666187 
L 459.759052 284.536669 
L 460.121043 191.958858 
L 460.302038 199.894099 
L 460.483034 266.021107 
L 460.664029 268.666187 
L 460.845025 268.666187 
L 461.207016 281.891588 
L 461.569007 202.53918 
L 461.750002 189.313778 
L 462.111993 242.215384 
L 462.292989 279.246508 
L 462.654979 287.181749 
L 463.197966 194.603939 
L 463.559957 242.215384 
L 463.740952 247.505545 
L 464.102943 263.376026 
L 464.464934 191.958858 
L 464.826925 223.699822 
L 465.00792 273.956347 
L 465.188916 271.311267 
L 465.550907 287.181749 
L 465.912898 194.603939 
L 466.093893 202.53918 
L 466.274889 234.280143 
L 466.998871 279.246508 
L 467.360862 215.764581 
L 467.541857 210.47442 
L 468.084843 258.085866 
L 468.446834 273.956347 
L 468.808825 205.18426 
L 468.989821 210.47442 
L 469.170816 242.215384 
L 469.351812 236.925223 
L 469.532807 263.376026 
L 469.894798 273.956347 
L 470.256789 210.47442 
L 470.437784 210.47442 
L 470.799775 247.505545 
L 470.980771 255.440785 
L 471.342762 276.601428 
L 471.523757 255.440785 
L 471.704753 199.894099 
L 471.885748 199.894099 
L 472.066744 236.925223 
L 472.247739 242.215384 
L 472.428734 242.215384 
L 472.790725 273.956347 
L 473.152716 202.53918 
L 473.333712 210.47442 
L 473.695703 266.021107 
L 473.876698 271.311267 
L 474.238689 287.181749 
L 474.419685 266.021107 
L 474.60068 266.021107 
L 474.781676 235.602683 
L 474.962671 242.215384 
L 475.324662 273.956347 
L 475.505657 281.891588 
L 475.686653 284.536669 
L 475.867648 276.601428 
L 476.048644 221.054742 
L 476.410635 236.925223 
L 476.772626 263.376026 
L 477.134617 276.601428 
L 477.496607 210.47442 
L 477.677603 205.18426 
L 477.858598 218.409661 
L 478.039594 281.891588 
L 478.220589 289.826829 
L 478.58258 300.40715 
L 479.125567 181.378537 
L 479.306562 197.249019 
L 479.668553 263.376026 
L 480.030544 266.021107 
L 480.211539 289.826829 
L 480.392535 207.82934 
L 480.57353 202.53918 
L 480.754526 215.764581 
L 481.116517 263.376026 
L 481.478508 281.891588 
L 481.659503 247.505545 
L 481.840499 191.958858 
L 482.021494 181.378537 
L 482.383485 242.215384 
L 482.56448 250.150625 
L 482.926471 273.956347 
L 483.107467 250.150625 
L 483.469458 165.508055 
L 483.650453 189.313778 
L 483.831449 244.860464 
L 484.374435 279.246508 
L 484.917422 197.249019 
L 485.098417 223.699822 
L 485.460408 287.181749 
L 485.822399 313.632552 
L 486.003394 300.40715 
L 486.18439 266.021107 
L 486.365385 255.440785 
L 487.089367 300.40715 
L 487.270363 305.697311 
L 487.451358 300.40715 
L 487.632353 234.280143 
L 487.813349 210.47442 
L 488.356335 281.891588 
L 488.537331 289.826829 
L 488.718326 292.471909 
L 488.899322 287.181749 
L 489.080317 268.666187 
L 489.261313 218.409661 
L 489.623304 273.956347 
L 489.804299 273.956347 
L 489.985294 284.536669 
L 490.347285 273.956347 
L 490.709276 236.925223 
L 491.252263 268.666187 
L 491.614254 281.891588 
L 492.15724 210.47442 
L 492.338236 244.860464 
L 492.700226 255.440785 
L 493.062217 273.956347 
L 493.424208 202.53918 
L 493.605204 202.53918 
L 493.967195 247.505545 
L 494.329186 266.021107 
L 494.510181 271.311267 
L 494.872172 197.249019 
L 495.053167 199.894099 
L 495.415158 252.795705 
L 495.958145 292.471909 
L 496.13914 260.730946 
L 496.320136 205.18426 
L 496.501131 205.18426 
L 497.044118 284.536669 
L 497.406109 308.342391 
L 497.949095 173.443296 
L 498.492081 273.956347 
L 499.035068 250.150625 
L 499.216063 178.733457 
L 499.397059 197.249019 
L 499.940045 281.891588 
L 500.302036 313.632552 
L 500.664027 194.603939 
L 500.845022 176.088377 
L 501.75 321.567793 
L 502.292986 184.023618 
L 502.473981 221.054742 
L 502.835972 313.632552 
L 503.197963 348.018596 
L 503.74095 197.249019 
L 503.921945 226.344902 
L 504.102941 289.826829 
L 504.464932 324.212873 
L 504.645927 353.308756 
L 505.007918 210.47442 
L 505.188913 207.82934 
L 505.550904 284.536669 
L 505.7319 305.697311 
L 505.912895 308.342391 
L 506.093891 313.632552 
L 506.636877 223.699822 
L 506.998868 273.956347 
L 507.179864 276.601428 
L 507.541854 300.40715 
L 507.903845 228.989982 
L 508.084841 226.344902 
L 508.446832 276.601428 
L 508.627827 300.40715 
L 508.989818 310.987472 
L 509.351809 223.699822 
L 509.7138 255.440785 
L 509.894796 263.376026 
L 510.618777 258.085866 
L 510.799773 223.699822 
L 510.980768 223.699822 
L 511.342759 258.085866 
L 511.523755 263.376026 
L 511.70475 287.181749 
L 511.885746 292.471909 
L 512.066741 284.536669 
L 512.247737 236.925223 
L 512.428732 236.925223 
L 512.790723 266.021107 
L 512.971718 266.021107 
L 513.333709 295.11699 
L 513.514705 244.860464 
L 513.6957 228.989982 
L 513.876696 226.344902 
L 514.057691 255.440785 
L 514.238687 266.021107 
L 514.600678 300.40715 
L 514.781673 305.697311 
L 514.962669 255.440785 
L 515.324659 210.47442 
L 515.68665 271.311267 
L 516.229637 297.76207 
L 516.410632 268.666187 
L 516.591628 218.409661 
L 516.772623 221.054742 
L 517.134614 276.601428 
L 517.31561 287.181749 
L 517.858596 255.440785 
L 518.039591 223.699822 
L 518.220587 223.699822 
L 518.582578 276.601428 
L 518.763573 281.891588 
L 519.125564 297.76207 
L 519.487555 242.215384 
L 519.849546 263.376026 
L 520.030541 281.891588 
L 520.573528 297.76207 
L 520.754523 276.601428 
L 520.935519 226.344902 
L 522.021492 329.503034 
L 522.383483 231.635063 
L 522.564478 228.989982 
L 522.926469 268.666187 
L 523.28846 308.342391 
L 523.469455 334.793194 
L 523.831446 234.280143 
L 524.012442 234.280143 
L 524.917419 348.018596 
L 525.27941 234.280143 
L 525.460405 236.925223 
L 525.641401 273.956347 
L 526.003392 300.40715 
L 526.365383 348.018596 
L 526.727374 231.635063 
L 526.908369 236.925223 
L 527.451356 313.632552 
L 527.813346 340.083355 
L 528.175337 228.989982 
L 528.356333 218.409661 
L 528.537328 263.376026 
L 529.26131 332.148114 
L 529.623301 228.989982 
L 529.804297 236.925223 
L 530.166287 276.601428 
L 530.347283 284.536669 
L 530.709274 342.728435 
L 531.071265 228.989982 
L 531.25226 236.925223 
L 531.976242 332.148114 
L 532.157238 342.728435 
L 532.519228 231.635063 
L 532.700224 223.699822 
L 532.881219 268.666187 
L 533.24321 303.052231 
L 533.605201 363.889077 
L 533.967192 231.635063 
L 534.148188 236.925223 
L 534.691174 316.277632 
L 535.053165 353.308756 
L 535.415156 226.344902 
L 535.596151 228.989982 
L 535.958142 292.471909 
L 536.501129 340.083355 
L 536.86312 228.989982 
L 537.044115 221.054742 
L 537.406106 295.11699 
L 537.949092 326.857953 
L 538.130088 297.76207 
L 538.311083 242.215384 
L 538.492079 236.925223 
L 538.85407 276.601428 
L 539.035065 276.601428 
L 539.216061 308.342391 
L 539.397056 313.632552 
L 539.759047 255.440785 
L 539.940043 288.504289 
L 540.121038 287.181749 
L 540.302033 287.181749 
L 540.483029 284.536669 
L 540.664024 303.052231 
L 540.84502 308.342391 
L 541.026015 295.11699 
L 541.207011 235.602683 
L 541.569002 266.021107 
L 542.292984 321.567793 
L 542.83597 231.635063 
L 543.016965 263.376026 
L 543.740947 332.148114 
L 544.102938 234.280143 
L 544.283934 228.989982 
L 544.645925 295.11699 
L 545.188911 350.663676 
L 545.550902 231.635063 
L 545.731897 234.280143 
L 545.912893 276.601428 
L 546.636875 334.793194 
L 546.81787 300.40715 
L 546.998866 223.699822 
L 547.903843 337.438274 
L 548.446829 271.311267 
L 549.170811 332.148114 
L 549.351807 308.342391 
L 549.532802 308.342391 
L 549.713798 292.471909 
L 549.894793 263.376026 
L 550.075788 255.440785 
L 550.437779 289.826829 
L 550.618775 289.826829 
L 550.79977 303.052231 
L 550.980766 297.76207 
L 551.342757 234.280143 
L 551.523752 239.570304 
L 551.704748 136.412172 
L 551.885743 279.246508 
L 552.066739 281.891588 
L 552.42873 300.40715 
L 552.609725 287.181749 
L 552.79072 231.635063 
L 552.971716 242.215384 
L 553.152711 271.311267 
L 553.333707 271.311267 
L 553.514702 276.601428 
L 553.876693 295.11699 
L 554.41968 236.925223 
L 554.600675 266.021107 
L 554.962666 287.181749 
L 555.505652 284.536669 
L 555.686648 244.860464 
L 555.867643 236.925223 
L 556.048639 271.311267 
L 556.229634 281.891588 
L 556.591625 321.567793 
L 556.772621 334.793194 
L 556.953616 300.40715 
L 557.134612 242.215384 
L 557.315607 244.860464 
L 557.677598 303.052231 
L 558.220584 361.243997 
L 558.763571 242.215384 
L 559.125562 318.922712 
L 559.487553 361.243997 
L 559.668548 366.534158 
L 560.030539 239.570304 
L 560.211534 250.150625 
L 560.573525 316.277632 
L 560.754521 340.083355 
L 561.116512 361.243997 
L 561.478503 247.505545 
L 561.659498 242.215384 
L 562.021489 308.342391 
L 562.202485 324.212873 
L 562.564476 369.179238 
L 563.107462 244.860464 
L 563.288457 292.471909 
L 563.469453 308.342391 
L 564.012439 379.759559 
L 564.555426 236.925223 
L 565.098412 340.083355 
L 565.460403 379.759559 
L 565.822394 250.150625 
L 566.003389 247.505545 
L 566.546376 348.018596 
L 567.089362 342.728435 
L 567.270358 247.505545 
L 567.451353 244.860464 
L 567.994339 348.018596 
L 568.35633 385.04972 
L 568.537326 334.793194 
L 568.718321 244.860464 
L 568.899317 228.989982 
L 569.442303 355.953836 
L 569.804294 387.6948 
L 569.98529 332.148114 
L 570.166285 234.280143 
L 570.34728 226.344902 
L 570.709271 321.567793 
L 571.252258 369.179238 
L 571.614249 244.860464 
L 571.795244 250.150625 
L 572.338231 340.083355 
L 572.700221 355.953836 
L 573.243208 242.215384 
L 573.424203 287.181749 
L 573.96719 361.243997 
L 574.148185 371.824318 
L 574.329181 326.857953 
L 574.510176 247.505545 
L 574.691172 244.860464 
L 575.053163 321.567793 
L 575.596149 377.114479 
L 576.139135 250.150625 
L 576.682122 355.953836 
L 577.044113 382.404639 
L 577.406104 258.085866 
L 577.587099 250.150625 
L 578.130085 361.243997 
L 578.492076 385.04972 
L 578.673072 353.308756 
L 578.854067 255.440785 
L 579.035063 252.795705 
L 579.578049 350.663676 
L 579.94004 374.469399 
L 580.121035 334.793194 
L 580.302031 255.440785 
L 580.483026 250.150625 
L 581.026013 348.018596 
L 581.388004 369.179238 
L 581.568999 342.728435 
L 581.749995 234.280143 
L 581.93099 247.505545 
L 582.473977 334.793194 
L 582.835967 361.243997 
L 583.016963 340.083355 
L 583.197958 260.730946 
L 583.559949 284.536669 
L 583.92194 321.567793 
L 584.283931 369.179238 
L 584.645922 263.376026 
L 584.826918 255.440785 
L 585.188908 310.987472 
L 585.731895 361.243997 
L 585.91289 340.083355 
L 586.093886 271.311267 
L 586.274881 255.440785 
L 586.817868 342.728435 
L 587.179859 377.114479 
L 587.360854 332.148114 
L 587.54185 258.085866 
L 587.722845 244.860464 
L 588.084836 313.632552 
L 588.265831 329.503034 
L 588.446827 366.534158 
L 588.627822 374.469399 
L 588.808818 334.793194 
L 588.989813 268.666187 
L 589.170809 260.730946 
L 589.5328 308.342391 
L 590.075786 371.824318 
L 590.256781 337.438274 
L 590.437777 266.021107 
L 590.980763 308.342391 
L 591.161759 342.728435 
L 591.52375 369.179238 
L 591.704745 334.793194 
L 591.885741 271.311267 
L 592.066736 260.730946 
L 592.428727 313.632552 
L 592.971713 361.243997 
L 593.152709 326.857953 
L 593.333704 268.666187 
L 593.5147 263.376026 
L 594.057686 326.857953 
L 594.419677 355.953836 
L 594.781668 263.376026 
L 595.324654 305.697311 
L 595.50565 308.342391 
L 595.867641 350.663676 
L 596.229632 271.311267 
L 596.410627 268.666187 
L 596.772618 310.987472 
L 596.953614 313.632552 
L 596.953614 313.632552 
" style="fill:none;stroke:#1f77b4;stroke-linecap:square;stroke-width:1.5;"/>
   </g>
   <g id="patch_3">
    <path d="M 40.88125 405.8136 
L 40.88125 7.2 
" style="fill:none;stroke:#000000;stroke-linecap:square;stroke-linejoin:miter;stroke-width:0.8;"/>
   </g>
   <g id="patch_4">
    <path d="M 623.43325 405.8136 
L 623.43325 7.2 
" style="fill:none;stroke:#000000;stroke-linecap:square;stroke-linejoin:miter;stroke-width:0.8;"/>
   </g>
   <g id="patch_5">
    <path d="M 40.88125 405.8136 
L 623.43325 405.8136 
" style="fill:none;stroke:#000000;stroke-linecap:square;stroke-linejoin:miter;stroke-width:0.8;"/>
   </g>
   <g id="patch_6">
    <path d="M 40.88125 7.2 
L 623.43325 7.2 
" style="fill:none;stroke:#000000;stroke-linecap:square;stroke-linejoin:miter;stroke-width:0.8;"/>
   </g>
  </g>
 </g>
 <defs>
  <clipPath id="pab8666a755">
   <rect height="398.6136" width="582.552" x="40.88125" y="7.2"/>
  </clipPath>
 </defs>
</svg>
